<svg version="1.1" id="Layer_1" xmlns="http://www.w3.org/2000/svg" x="0" y="0" viewBox="0 0 792 612" xml:space="preserve"><style>.st0{fill:#fff}</style><path class="st0" d="M288.9 249.5H308v4.8h-6.7v17.5h-5.8v-17.5h-6.6v-4.8zM323.5 266c.8.8 1.9 1.3 3.2 1.3 1.3 0 2.3-.4 3-1.3s1.2-2 1.2-3.4v-13.1h5.8v13.1c0 1.9-.4 3.6-1.2 5.1-.8 1.5-2 2.6-3.5 3.4-1.5.8-3.3 1.2-5.3 1.2s-3.8-.4-5.4-1.2c-1.5-.8-2.7-1.9-3.6-3.4-.8-1.5-1.3-3.1-1.3-5.1v-13.1h5.8v13.1c0 1.4.4 2.5 1.3 3.4zM360.4 271.8l-3.2-6.2h-4.4v6.2H347v-22.3h10c3 0 5.2.7 6.9 2.1 1.6 1.4 2.4 3.3 2.4 5.8 0 1.7-.3 3.1-1 4.3-.7 1.2-1.7 2.2-3 2.9l4.6 7.3h-6.5zm-7.6-10.8h4.2c1.2 0 2.1-.3 2.8-.9.6-.6 1-1.5 1-2.6s-.3-1.9-1-2.5c-.6-.6-1.6-.9-2.8-.9h-4.2v6.9zM391.7 249.5h5.4v22.3H392l-10.1-13.3v13.3h-5.4v-22.3h5.1l10.2 13.4-.1-13.4zM429.3 271.8h-7l-5.9-8.7-2.8 3.1v5.5h-5.8v-22.3h5.8v9.7l8.4-9.7h6.8l-8.3 9.2 8.8 13.2zM438.1 249.5h17.6v4.6h-11.8v4.2h10.6v4.6h-10.6v4.2H456v4.6h-17.9v-22.2zM485.7 249.5l-8.1 15.2v7.1h-5.8v-7l-8.2-15.3h5.8l5.3 9.6 5.2-9.6h5.8z"/><g><path class="st0" d="M350.3 288.2c.9.5 1.6 1.1 2.1 1.9.5.8.7 1.8.7 2.9s-.2 2-.7 2.9c-.5.8-1.2 1.5-2.1 1.9-.9.5-1.9.7-3.1.7h-4.6v-11h4.7c1.1.1 2.1.3 3 .7zm-1.5 7.6c.4-.3.8-.6 1-1.1.2-.5.4-1 .4-1.6 0-.6-.1-1.2-.4-1.7-.3-.5-.6-.9-1.1-1.1-.5-.3-1-.4-1.5-.4h-1.8v6.3h1.9c.6 0 1-.1 1.5-.4zM359.2 287.6h2.9v11h-2.9v-11zM376.2 292.9h2.5v4.4c-.6.4-1.3.8-2.2 1-.9.3-1.7.4-2.4.4-1.1 0-2.1-.2-3-.7-.9-.5-1.6-1.2-2.1-2-.5-.9-.8-1.8-.8-2.9 0-1.1.3-2 .8-2.9.5-.9 1.3-1.5 2.2-2 .9-.5 2-.7 3.1-.7.8 0 1.6.2 2.4.4.8.3 1.5.7 2.1 1.2l-1.6 2c-.4-.4-.9-.7-1.4-.9-.5-.2-1-.3-1.5-.3-.6 0-1.1.1-1.6.4-.5.3-.8.7-1.1 1.2-.3.5-.4 1-.4 1.6 0 .6.1 1.2.4 1.7.3.5.6.9 1.1 1.2.5.3 1 .4 1.6.4.6 0 1.2-.2 1.9-.5v-3zM385.3 287.6h2.9v11h-2.9v-11zM394.1 287.6h9.4v2.4h-3.3v8.6h-2.9V290H394v-2.4zM416.3 298.6l-.8-1.9h-4.8l-.8 1.9h-3l4.7-11h3l4.6 11h-2.9zm-4.7-4.2h3l-1.5-3.9-1.5 3.9zM425 287.6h2.9v8.6h4.7v2.4H425v-11z"/></g><g><path class="st0" d="M487.7 249.5h2.3v.4h-.9v2.6h-.5v-2.6h-.9v-.4zm2.8 0h.6l1 2 1-2h.6v3h-.5v-2.3l-.9 2h-.3l-.9-2v2.3h-.5v-3z"/></g></svg>